<svg xmlns="http://www.w3.org/2000/svg" width="20.965" height="22.871" viewBox="0 0 20.965 22.871">
    <path fill-rule="evenodd" d="M1 19.059v-2.807c1.9-.625 2.454-2.056 3.5-5.791C5.35 7.394 6.3 4 9.139 2.815a2.383 2.383 0 1 1 4.726-.433 2.361 2.361 0 0 1-.04.436c2.846 1.185 3.8 4.587 4.654 7.655 1.051 3.764 1.617 5.168 3.486 5.777v2.808h-6.671a3.812 3.812 0 0 1-7.624 0zm13.341 0H8.624a2.859 2.859 0 0 0 5.718 0zm-12.388-.953h19.059v-1.183c-1.965-.875-2.687-3.462-3.451-6.192C16.545 7.1 15.5 3.338 11.482 3.335s-5.058 3.752-6.069 7.381c-.762 2.737-1.486 5.33-3.46 6.208zM12.9 2.53l.008-.148a1.429 1.429 0 1 0-2.859 0l.008.145a6.983 6.983 0 0 1 2.844 0z" transform="translate(-1)"/>
</svg>
