<svg xmlns="http://www.w3.org/2000/svg" width="45" height="45" viewBox="0 0 45 45">
    <defs>
        <clipPath id="clip-path">
            <circle id="타원_2" cx="22.5" cy="22.5" r="22.5" class="cls-1" transform="translate(779 707)"/>
        </clipPath>
        <style>
            .cls-1{fill:#fff}.cls-3{fill:none}
        </style>
    </defs>
    <g id="마스크_그룹_3" clip-path="url(#clip-path)" transform="translate(-779 -707)">
        <g id="Google-Button" transform="translate(779 707)">
            <g id="btn_google_light_normal" transform="translate(-11 -10.828)">
                <g id="button" transform="translate(0 .428)">
                    <g id="button-bg">
                        <rect id="사각형_32" width="67" height="67" class="cls-1" rx="1.5" transform="translate(0 .4)"/>
                        <rect id="사각형_33" width="67" height="67" class="cls-3" rx="1.5" transform="translate(0 .4)"/>
                        <rect id="사각형_34" width="67" height="67" class="cls-3" rx="1.5" transform="translate(0 .4)"/>
                        <rect id="사각형_35" width="67" height="67" class="cls-3" rx="1.5" transform="translate(0 .4)"/>
                    </g>
                </g>
                <g id="logo_googleg_48dp" fill-rule="evenodd" transform="translate(18.615 18.592)">
                    <path id="Shape" fill="#4285f4" d="M21.371 8.638a17.5 17.5 0 0 0-.277-3.115H6.75v5.891h8.2a7.006 7.006 0 0 1-3.039 4.6v3.821h4.919a14.854 14.854 0 0 0 4.541-11.197z" transform="translate(8.48 6.938)"/>
                    <path id="Shape-2" fill="#34a853" d="M14.328 20.369a14.54 14.54 0 0 0 10.08-3.69l-4.922-3.821a9.154 9.154 0 0 1-5.158 1.454 9.077 9.077 0 0 1-8.522-6.28H.718v3.946a15.224 15.224 0 0 0 13.61 8.39z" transform="translate(.902 10.091)"/>
                    <path id="Shape-3" fill="#fbbc05" d="M6.708 13.452a9 9 0 0 1 0-5.787V3.719H1.62a15.249 15.249 0 0 0 0 13.68l5.088-3.946z" transform="translate(0 4.672)"/>
                    <path id="Shape-4" fill="#ea4335" d="M14.328 6.057a8.228 8.228 0 0 1 5.822 2.278l4.368-4.368A14.637 14.637 0 0 0 14.328 0 15.224 15.224 0 0 0 .718 8.39l5.088 3.946a9.077 9.077 0 0 1 8.522-6.279z" transform="translate(.902)"/>
                    <path id="Shape-5" fill="none" d="M0 0h30.46v30.46H0z"/>
                </g>
            </g>
        </g>
    </g>
</svg>
