<svg xmlns="http://www.w3.org/2000/svg" width="11.619" height="9.918" viewBox="0 0 11.619 9.918">
    <path d="M8.481 1.9a2.029 2.029 0 0 1 2.172 2.124c0 2.237-3.161 3.74-4.843 5.381C4.128 7.766.968 6.264.968 4.026A2.029 2.029 0 0 1 3.14 1.9c1.54 0 2.346 1.644 2.67 2.4.323-.755 1.13-2.4 2.671-2.4zm0-.9A2.941 2.941 0 0 0 5.81 2.541 2.941 2.941 0 0 0 3.14 1 2.962 2.962 0 0 0 0 4.016c0 3.277 4.8 4.931 5.81 6.902 1.015-1.971 5.81-3.625 5.81-6.9A2.972 2.972 0 0 0 8.481 1z" transform="translate(-.001 -1)"/>
</svg>
